<?xml version="1.0" encoding="utf-8"?>
<!-- Generator: Adobe Illustrator 18.1.1, SVG Export Plug-In . SVG Version: 6.00 Build 0)  -->
<svg version="1.1" id="Layer_1" xmlns="http://www.w3.org/2000/svg" xmlns:xlink="http://www.w3.org/1999/xlink" x="0px" y="0px"
	 viewBox="0 0 85 85" enable-background="new 0 0 85 85" xml:space="preserve">
<polygon fill="#E1E1E1" points="70.9,28.3 56.7,14.2 56.7,28.3 "/>
<polygon fill="#E1E1E1" points="14.2,56.7 28.3,70.9 28.3,56.7 "/>
<polygon fill="#E94540" points="0,0 0,42.5 42.5,0 "/>
<polygon fill="#E94540" points="14.2,56.7 14.2,56.7 14.2,56.7 "/>
<polygon fill="#E94540" points="56.7,0 42.5,0 56.7,14.2 "/>
<polygon fill="#51B0C5" points="85,85 85,42.5 42.5,85 "/>
<polygon fill="#E94540" points="70.9,28.3 70.9,28.3 70.9,28.3 "/>
<polygon fill="#51B0C5" points="28.3,85 42.5,85 28.3,70.9 "/>
<rect x="28.3" y="28.3" fill="#4C2D32" width="28.3" height="28.3"/>
<polygon fill="#C53D35" points="42.5,0 0,42.5 14.2,42.5 14.2,56.7 28.3,56.7 28.3,28.3 56.7,28.3 56.7,14.2 "/>
<polygon fill="#972D25" points="14.2,42.5 0,42.5 14.2,56.7 "/>
<polygon fill="#489CAF" points="70.9,28.3 56.7,28.3 56.7,56.7 28.3,56.7 28.3,70.9 42.5,85 85,42.5 70.9,42.5 "/>
<polygon fill="#357582" points="70.9,42.5 85,42.5 70.9,28.3 "/>
<g>
	<path fill="#FFFFFF" stroke="#FFFFFF" stroke-width="0.25" stroke-miterlimit="10" d="M6.6,14.4L6.6,14.4c0-2.1,1.7-3.1,4.1-3.1
		c1.2,0,2.1,0.2,2.9,0.4v-0.3c0-1.7-1-2.6-2.8-2.6c-1.1,0-2,0.3-2.9,0.7L7.4,8.3c1-0.5,2.1-0.8,3.5-0.8c1.3,0,2.4,0.4,3.1,1
		c0.7,0.7,1,1.6,1,2.8l0,5.8l-1.4,0l0-1.4c-0.7,0.8-1.7,1.6-3.4,1.6C8.4,17.3,6.6,16.3,6.6,14.4z M13.6,13.6v-0.9
		c-0.7-0.2-1.6-0.4-2.8-0.4C9,12.4,8,13.1,8,14.3v0c0,1.2,1.1,1.9,2.4,1.9C12.2,16.2,13.6,15.2,13.6,13.6z"/>
	<path fill="#FFFFFF" stroke="#FFFFFF" stroke-width="0.25" stroke-miterlimit="10" d="M20.3,12.4L20.3,12.4c0-3.1,2.3-5,4.5-5
		c1.8,0,2.9,1,3.6,2l0-5.7l1.4,0l0,13.4l-1.4,0l0-1.9c-0.8,1.1-1.9,2.1-3.6,2.1C22.6,17.3,20.3,15.5,20.3,12.4z M28.6,12.4
		L28.6,12.4c0-2.2-1.7-3.7-3.4-3.7c-1.8,0-3.3,1.4-3.3,3.7v0c0,2.2,1.5,3.7,3.3,3.7C26.9,16.1,28.6,14.6,28.6,12.4z"/>
	<path fill="#FFFFFF" stroke="#FFFFFF" stroke-width="0.25" stroke-miterlimit="10" d="M31.8,14.4L31.8,14.4c0-2.1,1.7-3.1,4.1-3.1
		c1.2,0,2.1,0.2,2.9,0.4v-0.3c0-1.7-1-2.6-2.8-2.6c-1.1,0-2,0.3-2.9,0.7l-0.4-1.2c1-0.5,2.1-0.8,3.5-0.8c1.3,0,2.4,0.4,3.1,1
		c0.7,0.7,1,1.6,1,2.8l0,5.8l-1.4,0l0-1.4c-0.7,0.8-1.7,1.6-3.4,1.6C33.6,17.4,31.8,16.3,31.8,14.4z M38.8,13.7l0-0.9
		c-0.7-0.2-1.6-0.4-2.8-0.4c-1.8,0-2.8,0.8-2.8,1.9v0c0,1.2,1.1,1.9,2.4,1.9C37.4,16.2,38.8,15.2,38.8,13.7z"/>
	<path fill="#FFFFFF" stroke="#FFFFFF" stroke-width="0.25" stroke-miterlimit="10" d="M41,19.7l0.5-1.1c0.5,0.2,0.9,0.3,1.5,0.3
		c0.8,0,1.4-0.4,1.9-1.8l-4.3-9.5l1.6,0l3.5,7.9l3.1-7.9l1.5,0l-4,9.8c-0.8,2-1.7,2.7-3.2,2.7C42.2,20.1,41.6,20,41,19.7z"/>
	<path fill="#FFFFFF" stroke="#FFFFFF" stroke-width="0.25" stroke-miterlimit="10" d="M36.3,45.4l0-5.7l-1.3,0l0-1.2l1.3,0l0-2.9
		l1.4,0l0,2.9l3,0l0,1.2l-3,0l0,5.5c0,1.2,0.6,1.6,1.6,1.6c0.5,0,0.9-0.1,1.4-0.3v1.2c-0.5,0.3-1,0.4-1.7,0.4
		C37.4,48.1,36.3,47.3,36.3,45.4z"/>
	<path fill="#FFFFFF" stroke="#FFFFFF" stroke-width="0.25" stroke-miterlimit="10" d="M41.3,43.2L41.3,43.2c0-2.7,2.1-5,5-5
		c2.8,0,4.9,2.2,4.9,4.9v0c0,2.7-2.1,5-5,5C43.4,48.1,41.3,45.9,41.3,43.2z M49.7,43.2L49.7,43.2c0-2.1-1.5-3.7-3.5-3.8
		c-2.1,0-3.5,1.7-3.5,3.7v0c0,2,1.5,3.7,3.5,3.7C48.3,46.9,49.7,45.2,49.7,43.2z"/>
	<path fill="#FFFFFF" stroke="#FFFFFF" stroke-width="0.25" stroke-miterlimit="10" d="M34.8,77.3l0.7-1c1,0.8,2.2,1.2,3.3,1.2
		c1.1,0,2-0.6,2-1.5v0c0-1-1.1-1.3-2.4-1.7c-1.5-0.4-3.1-0.9-3.1-2.7v0c0-1.6,1.4-2.7,3.2-2.7c1.2,0,2.4,0.4,3.4,1L41.2,71
		c-0.9-0.6-1.9-0.9-2.8-0.9c-1.1,0-1.8,0.6-1.8,1.4v0c0,0.9,1.2,1.2,2.4,1.6c1.5,0.4,3,1,3,2.7v0c0,1.8-1.5,2.8-3.4,2.8
		C37.3,78.7,35.8,78.2,34.8,77.3z"/>
	<path fill="#FFFFFF" stroke="#FFFFFF" stroke-width="0.25" stroke-miterlimit="10" d="M43.8,65.1l1.4,0l0,5.6
		c0.6-1,1.6-1.9,3.3-1.9c2.3,0,3.6,1.5,3.6,3.8l0,5.9l-1.4,0l0-5.5c0-1.8-1-2.9-2.6-2.9c-1.6,0-2.8,1.2-2.8,3l0,5.4l-1.4,0
		L43.8,65.1z"/>
	<path fill="#FFFFFF" stroke="#FFFFFF" stroke-width="0.25" stroke-miterlimit="10" d="M53.7,75.8L53.7,75.8c0-2.1,1.7-3.1,4.1-3.1
		c1.2,0,2.1,0.2,2.9,0.4v-0.3c0-1.7-1-2.6-2.8-2.6c-1.1,0-2,0.3-2.9,0.7l-0.4-1.2c1-0.5,2.1-0.8,3.5-0.8c1.3,0,2.4,0.4,3.1,1
		c0.7,0.7,1,1.6,1,2.8l0,5.8l-1.4,0l0-1.4c-0.7,0.8-1.7,1.6-3.4,1.6C55.4,78.7,53.7,77.7,53.7,75.8z M60.6,75v-0.9
		c-0.7-0.2-1.6-0.4-2.8-0.4c-1.8,0-2.8,0.8-2.8,1.9v0c0,1.2,1.1,1.9,2.4,1.9C59.2,77.6,60.6,76.5,60.6,75z"/>
	<path fill="#FFFFFF" stroke="#FFFFFF" stroke-width="0.25" stroke-miterlimit="10" d="M64.3,69l1.4,0l0,2.5
		c0.7-1.6,2.1-2.7,3.9-2.6l0,1.5h-0.1c-2.1,0-3.8,1.5-3.8,4.4l0,3.8l-1.4,0L64.3,69z"/>
	<path fill="#FFFFFF" stroke="#FFFFFF" stroke-width="0.25" stroke-miterlimit="10" d="M74.8,77.5c1.3,0,2.2-0.5,3-1.3l0.9,0.8
		c-1,1.1-2.1,1.8-3.9,1.8c-2.6,0-4.7-2-4.7-5c0-2.8,1.9-5,4.6-5c2.8,0,4.4,2.2,4.4,5c0,0.1,0,0.3,0,0.5l-7.5,0
		C71.7,76.4,73.1,77.5,74.8,77.5z M77.6,73.2c-0.2-1.7-1.2-3.2-3-3.2c-1.6,0-2.9,1.4-3.1,3.2L77.6,73.2z"/>
</g>
</svg>
