<?xml version="1.0" encoding="utf-8"?>
<!-- Generator: Adobe Illustrator 18.1.1, SVG Export Plug-In . SVG Version: 6.00 Build 0)  -->
<svg version="1.1" id="Calque_1" xmlns="http://www.w3.org/2000/svg" xmlns:xlink="http://www.w3.org/1999/xlink" x="0px" y="0px"
	 viewBox="219.7 0 115.6 100" enable-background="new 219.7 0 115.6 100" xml:space="preserve">
<g>
	<path fill="#333333" d="M293.9,15.4v4c10.8,0,19.4,8.8,19.6,19.4c0,23.8-29,38.4-36,41.6c-7-3.2-36-17.8-36-41.4
		c0-10.8,8.8-19.6,19.6-19.6c5.2,0,10,2,13.6,5.6l2.8,2.8l2.8-2.8c3.6-3.6,8.6-5.6,13.6-5.6L293.9,15.4 M293.9,15.4L293.9,15.4
		c-6.4,0-12.2,2.6-16.6,6.8c-4.2-4.2-10-6.8-16.4-6.8l0,0c-13,0-23.4,10.6-23.4,23.6c0,29.8,40,45.6,40,45.6s40-16,40-45.8
		C317.5,25.8,306.9,15.4,293.9,15.4L293.9,15.4z"/>
</g>
</svg>
